<svg xmlns="http://www.w3.org/2000/svg" version="1.1" xmlns:xlink="http://www.w3.org/1999/xlink" xmlns:svgjs="http://svgjs.dev/svgjs" width="1500" height="1500" viewBox="0 0 1500 1500"><rect width="1500" height="1500" fill="#ffffff"></rect><g transform="matrix(0.6666666666666666,0,0,0.6666666666666666,249.4163924750871,532.9368708654893)"><svg viewBox="0 0 396 172" data-background-color="#ffffff" preserveAspectRatio="xMidYMid meet" height="651" width="1500" xmlns="http://www.w3.org/2000/svg" xmlns:xlink="http://www.w3.org/1999/xlink"><g id="tight-bounds" transform="matrix(1,0,0,1,0.24889142013455512,0.025018919667871842)"><svg viewBox="0 0 395.52 171.94981290491558" height="171.94981290491558" width="395.52"><g><svg viewBox="0 0 395.52 171.94981290491558" height="171.94981290491558" width="395.52"><g transform="matrix(1,0,0,1,0,88.61266208907082)"><svg viewBox="0 0 395.52 83.33715081584474" height="83.33715081584474" width="395.52"><g id="textblocktransform"><svg viewBox="0 0 395.52 83.33715081584474" height="83.33715081584474" width="395.52" id="textblock"><g><svg viewBox="0 0 395.52 83.33715081584474" height="83.33715081584474" width="395.52"><g transform="matrix(1,0,0,1,0,0)"><svg width="395.52" viewBox="2.9494315040447665 -19.72876 291.4817284959553 61.41865" height="83.33715081584474" data-palette-color="#067627"><path d="M12.699 17.418v0c-3.86-0.943-6.613-2.834-8.26-5.672-1.64-2.837-1.938-6.396-0.892-10.676v0l5.081-20.799 4.547 1.111-4.906 20.079c-0.78 3.193-0.728 5.831 0.157 7.914 0.879 2.075 2.627 3.432 5.244 4.07v0c2.72 0.664 4.959 0.306 6.717-1.076 1.758-1.382 3.039-3.718 3.843-7.009v0l4.905-20.079 4.411 1.077-5.034 20.604c-0.687 2.811-1.8 5.105-3.339 6.885-1.531 1.774-3.36 2.967-5.486 3.58-2.133 0.611-4.462 0.609-6.988-0.009zM44.144 23.975v0c-2.393-0.44-4.442-1.392-6.145-2.857-1.703-1.465-2.914-3.29-3.631-5.476-0.722-2.193-0.846-4.582-0.372-7.165v0c0.5-2.721 1.482-4.967 2.946-6.739 1.463-1.765 3.246-3.006 5.35-3.724 2.104-0.718 4.337-0.861 6.698-0.428v0c2.361 0.433 4.387 1.358 6.079 2.774 1.699 1.417 2.926 3.205 3.682 5.363 0.756 2.159 0.887 4.582 0.393 7.271v0c-0.492 2.682-1.469 4.916-2.929 6.701-1.468 1.791-3.249 3.06-5.345 3.807-2.091 0.755-4.333 0.912-6.726 0.473zM44.855 20.1v0c2.551 0.468 4.696-0.032 6.438-1.502 1.741-1.47 2.863-3.578 3.367-6.326v0c0.309-1.685 0.239-3.294-0.211-4.828-0.456-1.541-1.211-2.852-2.267-3.934-1.05-1.074-2.352-1.754-3.906-2.039v0c-2.557-0.47-4.701 0.004-6.432 1.422-1.732 1.424-2.854 3.526-3.365 6.306v0c-0.308 1.679-0.237 3.305 0.213 4.878 0.444 1.566 1.194 2.89 2.249 3.972 1.055 1.082 2.36 1.765 3.914 2.051zM68.174 27.253l-4.399-0.6 2.816-20.669-3.914-0.533 0.52-3.815 3.914 0.533 0.406-2.982c0.391-2.867 1.499-5.024 3.324-6.47 1.818-1.441 4.015-1.986 6.591-1.636v0c1.334 0.182 2.486 0.497 3.454 0.945 0.968 0.448 1.877 0.962 2.727 1.543v0l-1.824 3.536c-0.637-0.457-1.326-0.884-2.066-1.281-0.739-0.403-1.581-0.67-2.526-0.798v0c-1.374-0.187-2.533 0.096-3.476 0.848-0.95 0.752-1.538 1.957-1.764 3.615v0l-0.447 3.28 7.521 1.025-0.52 3.814-7.521-1.024zM108.343 30.218l-4.435 1.302-2.88-10.182-15.907-1.527-4.765 9.347-3.827-1.995 16.641-31.855 5.107 0.49zM95.036 0.148l-8.064 15.872 12.911 1.24zM126.062 32.842v0c-2.99-0.137-5.601-0.971-7.833-2.501-2.239-1.537-3.937-3.657-5.094-6.36-1.157-2.703-1.653-5.879-1.486-9.528v0c0.161-3.51 0.949-6.59 2.366-9.241 1.423-2.651 3.361-4.684 5.815-6.101 2.448-1.423 5.267-2.061 8.457-1.914v0c1.638 0.075 3.126 0.3 4.464 0.675 1.331 0.375 2.576 0.869 3.736 1.482v0l-1.619 3.87c-0.99-0.539-2.014-0.98-3.073-1.322-1.052-0.342-2.301-0.546-3.746-0.612v0c-2.104-0.096-4.011 0.357-5.718 1.36-1.708 1.01-3.085 2.511-4.131 4.505-1.046 1.994-1.635 4.436-1.767 7.327v0c-0.126 2.757 0.232 5.193 1.076 7.307 0.837 2.114 2.059 3.782 3.665 5.003 1.605 1.228 3.477 1.891 5.615 1.989v0c1.612 0.074 3.016-0.059 4.213-0.397 1.204-0.345 2.376-0.802 3.516-1.371v0l1.25 3.952c-1.242 0.604-2.653 1.093-4.231 1.467-1.585 0.368-3.41 0.504-5.475 0.41zM150.617 33.188v0c-2.133 0.009-4.076-0.526-5.827-1.605-1.745-1.073-3.141-2.603-4.19-4.592-1.042-1.982-1.569-4.323-1.58-7.023v0c-0.011-2.56 0.496-4.862 1.52-6.907 1.031-2.044 2.454-3.671 4.269-4.878 1.821-1.208 3.916-1.817 6.283-1.827v0c1.48-0.006 2.821 0.241 4.023 0.742 1.202 0.508 2.248 1.137 3.138 1.887v0l-0.009-2.07 4.05-0.017 0.083 19.439c0.005 1.247 0.312 2.059 0.921 2.436 0.608 0.371 1.276 0.555 2.002 0.552v0l-0.925 3.464c-3.153 0.014-5.065-1.262-5.736-3.826v0c-0.749 1.057-1.771 2.021-3.068 2.894-1.296 0.879-2.948 1.323-4.954 1.331zM151.59 29.244v0c1.247-0.005 2.429-0.317 3.546-0.936 1.117-0.611 2.051-1.379 2.8-2.302v0l-0.059-13.759c-0.889-0.623-1.868-1.122-2.937-1.498-1.075-0.369-2.202-0.551-3.382-0.545v0c-1.58 0.007-2.968 0.416-4.165 1.228-1.197 0.805-2.138 1.926-2.825 3.362-0.681 1.436-1.017 3.108-1.009 5.014v0c0.008 1.84 0.358 3.472 1.051 4.896 0.699 1.43 1.658 2.546 2.875 3.347 1.223 0.801 2.592 1.199 4.105 1.193zM176.235 31.996l-4.424 0.213-1.234-25.62 4.285-0.206 0.269 5.573c0.374-1.106 0.898-2.146 1.572-3.119 0.681-0.967 1.55-1.767 2.607-2.398 1.051-0.625 2.299-0.972 3.745-1.041v0c0.493-0.024 0.987-0.024 1.481-0.002 0.495 0.03 0.912 0.086 1.25 0.17v0l-1.118 4.64c-0.632-0.23-1.374-0.324-2.227-0.284v0c-1.219 0.059-2.361 0.457-3.426 1.196-1.065 0.745-1.916 1.858-2.553 3.337-0.643 1.479-0.911 3.334-0.803 5.565v0zM198.382 41.281l-4.421 0.409-2.756-29.813c-0.102-1.109-0.445-1.877-1.026-2.305-0.582-0.428-1.301-0.603-2.158-0.524v0l0.619-3.522c3.014-0.279 5.006 0.742 5.977 3.063v0c0.287-0.522 0.768-1.142 1.445-1.861 0.669-0.725 1.532-1.384 2.589-1.977 1.05-0.592 2.279-0.954 3.686-1.083v0c1.965-0.182 3.855 0.163 5.669 1.032 1.815 0.877 3.337 2.239 4.565 4.087 1.229 1.855 1.972 4.173 2.23 6.955v0c0.251 2.715-0.053 5.147-0.912 7.294-0.86 2.142-2.081 3.855-3.663 5.139-1.582 1.284-3.355 2.017-5.32 2.199v0c-1.507 0.139-2.942-0.033-4.306-0.515-1.37-0.483-2.517-1.08-3.439-1.791v0zM203.657 26.533v0c2.23-0.206 3.958-1.25 5.184-3.13 1.232-1.881 1.716-4.246 1.453-7.094v0c-0.182-1.965-0.689-3.619-1.523-4.961-0.834-1.342-1.866-2.338-3.098-2.988-1.238-0.642-2.56-0.898-3.968-0.768v0c-1.407 0.13-2.643 0.599-3.706 1.407-1.063 0.808-1.853 1.648-2.368 2.519v0l1.162 12.576c0.931 0.804 1.981 1.44 3.149 1.909 1.169 0.474 2.407 0.651 3.715 0.53zM233.573 26.813v0c-2.408 0.351-4.653 0.106-6.737-0.735-2.083-0.841-3.815-2.182-5.195-4.022-1.388-1.846-2.271-4.068-2.65-6.667v0c-0.399-2.738-0.19-5.18 0.629-7.328 0.82-2.141 2.111-3.889 3.873-5.244 1.763-1.355 3.832-2.206 6.207-2.553v0c2.375-0.346 4.591-0.121 6.647 0.678 2.063 0.797 3.799 2.097 5.208 3.899 1.408 1.802 2.31 4.056 2.704 6.76v0c0.394 2.698 0.185 5.127-0.625 7.287-0.816 2.167-2.096 3.941-3.842 5.32-1.738 1.385-3.811 2.254-6.219 2.605zM233.004 22.915v0c2.566-0.374 4.438-1.537 5.616-3.487 1.177-1.95 1.565-4.308 1.161-7.072v0c-0.247-1.695-0.83-3.197-1.749-4.505-0.926-1.313-2.062-2.313-3.408-2.999-1.339-0.681-2.79-0.907-4.354-0.679v0c-2.573 0.375-4.452 1.512-5.637 3.41-1.184 1.904-1.572 4.255-1.164 7.051v0c0.246 1.689 0.835 3.206 1.766 4.553 0.923 1.341 2.058 2.354 3.404 3.041 1.346 0.686 2.801 0.915 4.365 0.687zM263.321 21.579v0c-2.386 0.476-4.642 0.347-6.765-0.385-2.124-0.732-3.923-1.982-5.397-3.748-1.481-1.771-2.479-3.945-2.992-6.521v0c-0.541-2.713-0.458-5.163 0.248-7.35 0.708-2.18 1.906-3.993 3.597-5.438 1.69-1.445 3.712-2.402 6.066-2.871v0c2.354-0.469 4.578-0.358 6.674 0.333 2.102 0.689 3.903 1.897 5.402 3.624 1.5 1.727 2.517 3.931 3.051 6.611v0c0.533 2.674 0.451 5.11-0.246 7.309-0.702 2.206-1.889 4.044-3.562 5.512-1.664 1.474-3.689 2.448-6.076 2.924zM262.551 17.715v0c2.543-0.507 4.352-1.765 5.428-3.773 1.075-2.009 1.339-4.383 0.793-7.123v0c-0.335-1.68-0.995-3.15-1.98-4.408-0.993-1.264-2.179-2.203-3.559-2.819-1.372-0.61-2.833-0.761-4.383-0.452v0c-2.55 0.508-4.367 1.74-5.453 3.697-1.084 1.963-1.35 4.331-0.797 7.103v0c0.334 1.674 1 3.159 1.999 4.455 0.991 1.291 2.177 2.244 3.558 2.86 1.38 0.615 2.845 0.769 4.394 0.46zM289.725 15.712v0c-1.471 0.356-2.863 0.398-4.178 0.127-1.321-0.27-2.476-0.947-3.465-2.032-0.988-1.078-1.722-2.608-2.203-4.59v0l-6.699-27.661 4.316-1.045 6.595 27.233c0.417 1.724 1.086 2.913 2.006 3.568 0.92 0.655 2.018 0.828 3.295 0.519v0c0.609-0.147 1.191-0.364 1.746-0.649 0.555-0.285 1.016-0.575 1.384-0.87v0l1.909 3.252c-0.515 0.392-1.174 0.788-1.976 1.188-0.797 0.392-1.707 0.712-2.73 0.96z" opacity="1" transform="matrix(1,0,0,1,0,0)" fill="#067627" class="wordmark-text-0" data-fill-palette-color="primary" id="text-0"></path></svg></g></svg></g></svg></g></svg></g><g transform="matrix(1,0,0,1,154.46304538563825,0)"><svg viewBox="0 0 86.59390922872349 83.33715081584474" height="83.33715081584474" width="86.59390922872349"><g><svg xmlns="http://www.w3.org/2000/svg" xmlns:xlink="http://www.w3.org/1999/xlink" version="1.1" x="0" y="0" viewBox="1.294 3.7839902480806273 97.342 93.68101067349795" enable-background="new 0 0 100 100" xml:space="preserve" height="83.33715081584474" width="86.59390922872349" class="icon-icon-0" data-fill-palette-color="accent" id="icon-0"><g fill="#e9de2c" data-fill-palette-color="accent"><path d="M75.984 64.604H23.601C25.321 68.217 36.391 71.004 49.793 71.004 63.193 71.004 74.266 68.217 75.984 64.604M6.639 54.232C6.475 57.497 10.328 60.948 15.245 61.935 20.161 62.924 24.278 61.081 24.442 57.816 24.606 54.548 20.753 51.099 15.837 50.11S6.803 50.967 6.639 54.232M49.791 8.024C38.698 8.095 25.766 8.495 15.15 11.048 14.208 11.228 14.097 12.219 14.097 12.219L13.188 36.361C13.11 40.548 17.893 42.451 49.79 42.552 81.689 42.451 86.471 40.548 86.394 36.361L85.484 12.219S85.375 11.228 84.431 11.048C73.814 8.495 60.884 8.095 49.791 8.024M92.941 54.232C92.777 50.965 88.662 49.12 83.746 50.11 78.83 51.099 74.976 54.548 75.141 57.816 75.305 61.082 79.421 62.924 84.337 61.935 89.255 60.948 93.105 57.497 92.941 54.232M49.966 88.538L47.05 88.536C36.216 88.495 25.589 88.285 16.748 87.636V92.569A4.895 4.895 0 0 1 11.852 97.465H7.826A4.893 4.893 0 0 1 2.93 92.569V82.268C2.825 81.352 2.714 80.298 2.606 79.121 1.774 74.804 1.294 69.703 1.294 64.235 1.294 57.303 2.068 50.955 3.35 46.051 3.604 44.934 3.912 43.937 4.261 43.048 4.368 42.743 4.479 42.446 4.591 42.157L9.462 8.825S9.658 7.437 10.901 7.127C22.079 4.085 49.031 3.782 49.966 3.784 50.899 3.782 77.854 4.085 89.029 7.127 90.271 7.437 90.47 8.825 90.47 8.825L95.338 42.157C95.449 42.446 95.562 42.743 95.668 43.048 96.017 43.937 96.324 44.934 96.58 46.051 97.86 50.954 98.636 57.303 98.636 64.235 98.636 69.703 98.156 74.802 97.324 79.121A133 133 0 0 1 96.999 82.268V92.569A4.894 4.894 0 0 1 92.105 97.465H88.078A4.894 4.894 0 0 1 83.182 92.569V87.637C74.341 88.285 63.715 88.495 52.88 88.536z" fill="#e9de2c" data-fill-palette-color="accent"></path></g></svg></g></svg></g><g></g></svg></g><defs></defs></svg><rect width="395.52" height="171.94981290491558" fill="none" stroke="none" visibility="hidden"></rect></g></svg></g></svg>